<!-- battery 25% medium regular -->
<svg xmlns="http://www.w3.org/2000/svg" xmlns:xlink="http://www.w3.org/1999/xlink" version="1.1" width="175" height="117">
<g xmlns="http://www.w3.org/2000/svg" id="Regular-M" transform="matrix(1 0 0 1 0 88)">
   <path d="M 38.4766 2.34375 L 125 2.34375 C 133.35 2.34375 140.332 1.5625 145.312 -3.41797 C 150.293 -8.39844 151.025 -15.332 151.025 -23.6816 L 151.025 -48.7305 C 151.025 -57.0801 150.293 -64.0625 145.312 -68.9941 C 140.332 -73.9746 133.35 -74.8047 125 -74.8047 L 38.3789 -74.8047 C 30.1758 -74.8047 23.1445 -73.9746 18.1641 -68.9941 C 13.1836 -64.0137 12.4512 -57.0801 12.4512 -48.877 L 12.4512 -23.6816 C 12.4512 -15.332 13.1836 -8.34961 18.1641 -3.41797 C 23.1445 1.5625 30.1758 2.34375 38.4766 2.34375 Z M 37.1582 -5.51758 C 32.1289 -5.51758 26.8555 -6.20117 23.877 -9.13086 C 20.9473 -12.1094 20.3125 -17.2852 20.3125 -22.3145 L 20.3125 -49.9512 C 20.3125 -55.0781 20.9473 -60.3516 23.877 -63.2812 C 26.8555 -66.2598 32.1777 -66.9434 37.3047 -66.9434 L 126.318 -66.9434 C 131.348 -66.9434 136.621 -66.2109 139.6 -63.2812 C 142.529 -60.3027 143.164 -55.127 143.164 -50.0977 L 143.164 -22.3145 C 143.164 -17.2852 142.529 -12.1094 139.6 -9.13086 C 136.621 -6.15234 131.348 -5.51758 126.318 -5.51758 Z M 36.1816 -12.1582 L 49.0234 -12.1582 C 52.6367 -12.1582 54.6387 -12.6465 56.2012 -14.1602 C 57.7637 -15.7227 58.2031 -17.7734 58.2031 -21.3379 L 58.2031 -51.0742 C 58.2031 -54.6875 57.7148 -56.6895 56.2012 -58.252 C 54.6387 -59.8145 52.6367 -60.2539 49.0234 -60.2539 L 36.1816 -60.2539 C 32.5195 -60.2539 30.5176 -59.8145 29.0039 -58.252 C 27.4414 -56.6895 27.002 -54.6875 27.002 -51.0742 L 27.002 -21.3379 C 27.002 -17.7734 27.4414 -15.7227 29.0039 -14.1602 C 30.5664 -12.6465 32.5195 -12.1582 36.1816 -12.1582 Z M 157.715 -23.877 C 161.572 -24.1211 166.748 -29.0527 166.748 -36.5234 C 166.748 -43.9453 161.572 -48.877 157.715 -49.1211 Z" stroke="red" fill="red"/>
  </g>
</svg>

