<!-- lock medium regular -->
<svg xmlns="http://www.w3.org/2000/svg" xmlns:xlink="http://www.w3.org/1999/xlink" version="1.1" width="121" height="117">

<g xmlns="http://www.w3.org/2000/svg" id="Regular-M" transform="matrix(1 0 0 1 0 100)">
   <path d="M 23.4375 11.4746 L 68.1152 11.4746 C 75.4395 11.4746 79.0527 7.8125 79.0527 -0.146484 L 79.0527 -33.7891 C 79.0527 -40.5273 76.4648 -44.1406 71.1426 -45.0684 L 71.1426 -58.0078 C 71.1426 -70.2637 79.0039 -76.7578 88.1348 -76.7578 C 97.2656 -76.7578 105.127 -70.2637 105.127 -58.0078 L 105.127 -47.168 C 105.127 -44.1895 106.836 -42.7246 109.082 -42.7246 C 111.23 -42.7246 112.988 -44.043 112.988 -47.168 L 112.988 -56.9824 C 112.988 -75.3906 100.928 -84.2773 88.1348 -84.2773 C 75.3418 -84.2773 63.2812 -75.3906 63.2812 -56.9824 L 63.2812 -45.3125 L 23.4375 -45.3125 C 16.1133 -45.3125 12.4512 -41.6992 12.4512 -33.7891 L 12.4512 -0.146484 C 12.4512 7.8125 16.1133 11.4746 23.4375 11.4746 Z M 23.6816 4.15039 C 21.4355 4.15039 20.3125 3.125 20.3125 0.390625 L 20.3125 -34.2773 C 20.3125 -37.0117 21.4355 -37.9883 23.6816 -37.9883 L 67.8711 -37.9883 C 70.166 -37.9883 71.1914 -37.0117 71.1914 -34.2773 L 71.1914 0.390625 C 71.1914 3.125 70.166 4.15039 67.8711 4.15039 Z"/>
  </g>
</svg>

