<!-- plus medium regular -->
<svg xmlns="http://www.w3.org/2000/svg" xmlns:xlink="http://www.w3.org/1999/xlink" version="1.1" width="121" height="117">
<g xmlns="http://www.w3.org/2000/svg" id="Regular-M" transform="matrix(1 0 0 1 10 100)">
   <path d="M 52.7344 5.9082 C 55.127 5.9082 57.1289 4.00391 57.1289 1.66016 L 57.1289 -30.8105 L 88.6719 -30.8105 C 91.0156 -30.8105 93.0176 -32.8125 93.0176 -35.2051 C 93.0176 -37.5977 91.0156 -39.5508 88.6719 -39.5508 L 57.1289 -39.5508 L 57.1289 -72.0703 C 57.1289 -74.4141 55.127 -76.3184 52.7344 -76.3184 C 50.3418 -76.3184 48.3887 -74.4141 48.3887 -72.0703 L 48.3887 -39.5508 L 16.7969 -39.5508 C 14.4531 -39.5508 12.4512 -37.5977 12.4512 -35.2051 C 12.4512 -32.8125 14.4531 -30.8105 16.7969 -30.8105 L 48.3887 -30.8105 L 48.3887 1.66016 C 48.3887 4.00391 50.3418 5.9082 52.7344 5.9082 Z"/>
  </g>

</svg>
