<?xml version="1.0" encoding="UTF-8"?>
<svg width="146px" height="67px" viewBox="0 0 146 67" version="1.1" xmlns="http://www.w3.org/2000/svg" xmlns:xlink="http://www.w3.org/1999/xlink">
    <title>Regular-M</title>
    <g id="Page-1" stroke="none" stroke-width="1" fill="none" fill-rule="evenodd">
        <g id="battery.100.bolt" transform="translate(-1377.000000, -1057.000000)" fill-rule="nonzero">
            <g id="Symbols" transform="translate(475.458500, 629.691400)">
                <g id="Regular-M" transform="translate(902.122700, 428.022022)">
                    <path d="M64.1601,0.0248781624 L57.8613,7.88617816 L24.8535,7.88617816 C22.2819,7.88617816 19.7672333,8.11404483 17.3095,8.56977816 C14.8518333,9.0255115 12.8906,10.0020782 11.4258,11.4994782 C9.96093333,12.9643448 9.00063333,14.9093448 8.5449,17.3344782 C8.08916667,19.7595448 7.8613,22.2579115 7.8613,24.8295782 L7.8613,24.8295782 L7.8613,41.3822782 C7.8613,43.9213448 8.08916667,46.3871782 8.5449,48.7797782 C9.00063333,51.1723115 9.96093333,53.1172782 11.4258,54.6146782 C12.9231333,56.0795448 14.8843667,57.0479782 17.3095,57.5199782 C19.7346333,57.9919782 22.2004667,58.2279782 24.707,58.2279782 L24.707,58.2279782 L48.584,58.2279782 C48.1933333,59.3347515 47.9003333,60.3275915 47.705,61.2064982 C47.5097333,62.0854048 47.4283667,62.9073448 47.4609,63.6723182 C47.4934333,64.4372915 47.6724667,65.2429548 47.998,66.0893082 L47.998,66.0893082 L26.0254,66.0893082 C21.8587333,66.0893082 18.0582667,65.7556515 14.624,65.0883382 C11.1897333,64.4210182 8.21936667,62.8341048 5.7129,60.3275982 C3.20636667,57.8536515 1.62756667,54.8995448 0.9765,51.4652782 C0.3255,48.0310115 0,44.2305448 0,40.0638782 L0,40.0638782 L0,25.9037782 C0,21.8347782 0.333633333,18.0912782 1.0009,14.6732782 C1.66823333,11.2553448 3.2389,8.2931115 5.7129,5.78657816 C8.21936667,3.31264483 11.1897333,1.73387816 14.624,1.05027816 C18.0582667,0.366678162 21.8261667,0.0248781624 25.9277,0.0248781624 L25.9277,0.0248781624 L64.1601,0.0248781624 Z M102.7828,0.0248781624 C106.949467,0.0248781624 110.758133,0.358544829 114.2088,1.02587816 C117.659467,1.69314483 120.638133,3.28004483 123.1448,5.78657816 C125.6188,8.2605115 127.189467,11.2146115 127.8568,14.6488782 C128.524133,18.0831448 128.8578,21.8836115 128.8578,26.0502782 L128.8578,26.0502782 L128.8578,40.0638782 C128.8578,44.2305448 128.524133,48.0310115 127.8568,51.4652782 C127.189467,54.8995448 125.6188,57.8536515 123.1448,60.3275982 C120.638133,62.8341048 117.659467,64.4210182 114.2088,65.0883382 C110.758133,65.7556515 106.949467,66.0893082 102.7828,66.0893082 L102.7828,66.0893082 L65.9179,66.0893082 L72.2168,58.2279782 L104.1508,58.2279782 C106.6568,58.2279782 109.122467,57.9919782 111.5478,57.5199782 C113.973133,57.0479782 115.918133,56.0795448 117.3828,54.6146782 C118.880133,53.1172782 119.8568,51.1723115 120.3128,48.7797782 C120.768133,46.3871782 120.9958,43.9213448 120.9958,41.3822782 L120.9958,41.3822782 L120.9958,24.6830782 C120.9958,22.1765448 120.768133,19.7270115 120.3128,17.3344782 C119.8568,14.9418782 118.880133,12.9968782 117.3828,11.4994782 C115.918133,10.0346115 113.973133,9.06617816 111.5478,8.59417816 C109.122467,8.12217816 106.6568,7.88617816 104.1508,7.88617816 L104.1508,7.88617816 L81.4941,7.88617816 C81.8847,6.7143115 82.1695333,5.6889115 82.3486,4.80997816 C82.5276667,3.9311115 82.6009,3.10917816 82.5683,2.34417816 C82.5357667,1.57924483 82.373,0.806144829 82.08,0.0248781624 L82.08,0.0248781624 Z M53.3691,13.5502782 L39.6972,30.7377782 C38.2324,32.5932448 37.5,34.5951782 37.5,36.7435782 C37.5,39.2175782 38.3707667,41.3009115 40.1123,42.9935782 C41.8538333,44.6863115 43.9453,45.5326782 46.3867,45.5326782 L46.3867,45.5326782 L53.3203,45.5326782 L50.7324,52.5638782 L22.1191,52.5638782 C20.4589667,52.5638782 19.0999333,52.4255448 18.042,52.1488782 C16.984,51.8722115 16.1132333,51.3920782 15.4297,50.7084782 C14.7786333,50.0248782 14.3066,49.1622448 14.0136,48.1205782 C13.7206667,47.0789115 13.5742,45.7117115 13.5742,44.0189782 L13.5742,44.0189782 L13.5742,22.1927782 C13.5742,20.4675782 13.7206667,19.0759782 14.0136,18.0179782 C14.3066,16.9600448 14.7786333,16.0892782 15.4297,15.4056782 C16.1132333,14.7221448 16.9921333,14.2420115 18.0664,13.9652782 C19.1406,13.6886115 20.5403333,13.5502782 22.2656,13.5502782 L22.2656,13.5502782 L53.3691,13.5502782 Z M106.7378,13.5502782 C108.431133,13.5502782 109.798467,13.6886115 110.8398,13.9652782 C111.8818,14.2420115 112.744467,14.7221448 113.4278,15.4056782 C114.111133,16.0892782 114.599467,16.9519115 114.8928,17.9935782 C115.185467,19.0352448 115.3318,20.4024448 115.3318,22.0951782 L115.3318,22.0951782 L115.3318,44.0189782 C115.3318,47.2091115 114.697133,49.4389448 113.4278,50.7084782 C112.744467,51.3920782 111.8818,51.8722115 110.8398,52.1488782 C109.798467,52.4255448 108.431133,52.5638782 106.7378,52.5638782 L106.7378,52.5638782 L76.709,52.5638782 L90.3808,35.3763782 C91.8454667,33.5209115 92.5778,31.5189782 92.5778,29.3705782 C92.5778,26.8965782 91.7071333,24.8132448 89.9658,23.1205782 C88.2242667,21.4278448 86.1165333,20.5814782 83.6426,20.5814782 L83.6426,20.5814782 L76.7578,20.5814782 L79.3457,13.5502782 Z M135.4978,20.4349782 C136.7998,20.5001115 138.1508,21.0697782 139.5508,22.1439782 C140.9508,23.2182448 142.1308,24.6831115 143.0908,26.5385782 C144.0508,28.3940448 144.5308,30.5587448 144.5308,33.0326782 C144.5308,35.5392115 144.0508,37.7202115 143.0908,39.5756782 C142.1308,41.4311448 140.9508,42.8878448 139.5508,43.9457782 C138.1508,45.0037115 136.7998,45.5815115 135.4978,45.6791782 L135.4978,45.6791782 Z" id="Combined-Shape" fill="#676767"></path>
                    <path d="M44.1406,36.7435782 C44.1406,37.3621115 44.3603333,37.8666782 44.7998,38.2572782 C45.2392667,38.6478782 45.7682333,38.8431782 46.3867,38.8431782 L62.9394,38.8431782 L54.1015,62.5736882 C53.7434333,63.6153548 53.7841333,64.4617082 54.2236,65.1127482 C54.6630667,65.7637882 55.2897,66.0974482 56.1035,66.1142067 C56.9173,66.1300015 57.6497333,65.7312382 58.3008,64.9174382 L85.0586,31.2748782 C85.6119333,30.5587448 85.8886,29.9239782 85.8886,29.3705782 C85.8886,28.7520448 85.6689,28.2474782 85.2295,27.8568782 C84.7900333,27.4662782 84.2610667,27.2709782 83.6426,27.2709782 L67.0898,27.2709782 L75.9277,3.54047816 C76.3183,2.4988115 76.2857333,1.65244483 75.83,1.00137816 C75.3743333,0.350378162 74.7477333,0.0167448291 73.9502,0 C73.1526667,-0.0157885043 72.4121,0.382978162 71.7285,1.19677816 L44.9707,34.7904782 C44.4173,35.5392115 44.1406,36.1902448 44.1406,36.7435782 Z" id="Path" fill="#3AD207"></path>
                </g>
            </g>
        </g>
    </g>
</svg>