<?xml version="1.0" encoding="UTF-8"?>
<svg width="146px" height="67px" viewBox="0 0 146 67" version="1.1" xmlns="http://www.w3.org/2000/svg" xmlns:xlink="http://www.w3.org/1999/xlink">
    <title>Regular-M</title>
    <g id="Page-1" stroke="none" stroke-width="1" fill="none" fill-rule="evenodd">
        <g id="battery.25" transform="translate(-1377.000000, -1057.000000)" fill-rule="nonzero">
            <g id="Symbols" transform="translate(475.458500, 629.691400)">
                <g id="Regular-M" transform="translate(902.122700, 428.046900)">
                    <path d="M26.0254,66.06443 L102.7828,66.06443 C106.949467,66.06443 110.758133,65.7307733 114.2088,65.06346 C117.659467,64.39614 120.638133,62.8092267 123.1448,60.30272 C125.6188,57.8287733 127.189467,54.8746667 127.8568,51.4404 C128.524133,48.0061333 128.8578,44.2056667 128.8578,40.039 L128.8578,26.0254 C128.8578,21.8587333 128.524133,18.0582667 127.8568,14.624 C127.189467,11.1897333 125.6188,8.23563333 123.1448,5.7617 C120.638133,3.25516667 117.659467,1.66826667 114.2088,1.001 C110.758133,0.333666667 106.949467,0 102.7828,0 L25.9277,0 C21.8261667,0 18.0582667,0.3418 14.624,1.0254 C11.1897333,1.709 8.21936667,3.28776667 5.7129,5.7617 C3.2389,8.26823333 1.66823333,11.2304667 1.0009,14.6484 C0.333633333,18.0664 0,21.8099 0,25.8789 L0,40.039 C0,44.2056667 0.3255,48.0061333 0.9765,51.4404 C1.62756667,54.8746667 3.20636667,57.8287733 5.7129,60.30272 C8.21936667,62.8092267 11.1897333,64.39614 14.624,65.06346 C18.0582667,65.7307733 21.8587333,66.06443 26.0254,66.06443 Z M24.707,58.2031 C22.2004667,58.2031 19.7346333,57.9671 17.3095,57.4951 C14.8843667,57.0231 12.9231333,56.0546667 11.4258,54.5898 C9.96093333,53.0924 9.00063333,51.1474333 8.5449,48.7549 C8.08916667,46.3623 7.8613,43.8964667 7.8613,41.3574 L7.8613,24.8047 C7.8613,22.2330333 8.08916667,19.7346667 8.5449,17.3096 C9.00063333,14.8844667 9.96093333,12.9394667 11.4258,11.4746 C12.8906,9.9772 14.8518333,9.00063333 17.3095,8.5449 C19.7672333,8.08916667 22.2819,7.8613 24.8535,7.8613 L104.1508,7.8613 C106.6568,7.8613 109.122467,8.0973 111.5478,8.5693 C113.973133,9.0413 115.918133,10.0097333 117.3828,11.4746 C118.880133,12.972 119.8568,14.917 120.3128,17.3096 C120.768133,19.7021333 120.9958,22.1516667 120.9958,24.6582 L120.9958,41.3574 C120.9958,43.8964667 120.768133,46.3623 120.3128,48.7549 C119.8568,51.1474333 118.880133,53.0924 117.3828,54.5898 C115.918133,56.0546667 113.973133,57.0231 111.5478,57.4951 C109.122467,57.9671 106.6568,58.2031 104.1508,58.2031 L24.707,58.2031 Z M135.4978,45.6543 C136.7998,45.5566333 138.1508,44.9788333 139.5508,43.9209 C140.9508,42.8629667 142.1308,41.4062667 143.0908,39.5508 C144.0508,37.6953333 144.5308,35.5143333 144.5308,33.0078 C144.5308,30.5338667 144.0508,28.3691667 143.0908,26.5137 C142.1308,24.6582333 140.9508,23.1933667 139.5508,22.1191 C138.1508,21.0449 136.7998,20.4752333 135.4978,20.4101 L135.4978,45.6543 Z" id="Shape" fill="#676767"></path>
                    <path d="M22.1191,52.539 L31.5918,52.539 C33.2519333,52.539 34.6109667,52.4006667 35.6689,52.124 C36.7268333,51.8473333 37.5813333,51.3672 38.2324,50.6836 C39.5019333,49.4140667 40.1367,47.1842333 40.1367,43.9941 L40.1367,22.0703 C40.1367,20.3775667 39.9983667,19.0103667 39.7217,17.9687 C39.4449667,16.9270333 38.9648,16.0644 38.2812,15.3808 C37.5976,14.6972667 36.7268333,14.2171333 35.6689,13.9404 C34.6109667,13.6637333 33.2519333,13.5254 31.5918,13.5254 L22.2656,13.5254 C20.5078,13.5254 19.0999333,13.6637333 18.042,13.9404 C16.984,14.2171333 16.1132333,14.6972667 15.4297,15.3808 C14.7461,16.0644 14.2659333,16.9351667 13.9892,17.9931 C13.7125333,19.0511 13.5742,20.4427 13.5742,22.1679 L13.5742,43.9941 C13.5742,45.6868333 13.7125333,47.0540333 13.9892,48.0957 C14.2659333,49.1373667 14.7461,50 15.4297,50.6836 C16.1132333,51.3672 16.984,51.8473333 18.042,52.124 C19.0999333,52.4006667 20.4589667,52.539 22.1191,52.539 Z" id="Path" fill="#FF0000"></path>
                </g>
            </g>
        </g>
    </g>
</svg>